# xmcd
#
# Track frame offsets:
#	150
#	11837
#	25397
#	39995
#	51347
#	67407
#	82820
#	94265
#	105737
#	121825
#	138055
#	148250
#	161555
#	176847
#	192507
#	209662
#
# Disc length: 2964 seconds
#
# Revision: 3
# Processed by: cddbd v1.5.1PL0 Copyright (c) Steve Scherf et al.
# Submitted via: dBpowerAMP V4.0
#
DISCID=ed0b9210
DTITLE=Various Artist - Today's Country Gold, Vol.3
DYEAR=1990
DGENRE=Country
TTITLE0=Rosanne Cash - I Don't Want To Spoil The Party
TTITLE1=Shenandoah - Church On Cumberland Road
TTITLE2=Rodney Crowell - She's Crazy For Leaving
TTITLE3=Patty Loveless - Timber, I'm Falling In Love
TTITLE4=Ricky Skaggs - Lovin' Only Me
TTITLE5=George Fox - Angelina
TTITLE6=Ricky Van Shelton - Hole In My Pocket
TTITLE7=Dolly Parton - Why'd You Come In Here Lookin' Like That
TTITLE8=Judds - Change Of Heart
TTITLE9=Keith Whitley - Don't Close Your Eyes
TTITLE10=George Jones - I'm A One Woman Man
TTITLE11=Anita Perras - Hello Again
TTITLE12=Eddy Raven - In A Letter To You
TTITLE13=Shooters - Borderline
TTITLE14=Dwight Yoakam - I Sang Dixie
TTITLE15=Dwight Yoakam and Buck Owens - Streets Of Bakersfield
EXTD=
EXTT0=
EXTT1=
EXTT2=
EXTT3=
EXTT4=
EXTT5=
EXTT6=
EXTT7=
EXTT8=
EXTT9=
EXTT10=
EXTT11=
EXTT12=
EXTT13=
EXTT14=
EXTT15=
PLAYORDER=
